<svg xmlns="http://www.w3.org/2000/svg" width="20" height="20" viewBox="0 0 20 20" fill="none">
<g clip-path="url(#clip0_325_3447)">
<path d="M17.4536 19.2956L14.8169 13.7182C14.7643 13.6069 14.6732 13.5216 14.5638 13.4751L13.2521 12.8911L15.525 9.08184C15.5304 9.0727 15.5355 9.06345 15.5404 9.05399C15.9923 8.172 16.2214 7.21891 16.2214 6.22138C16.2214 4.54329 15.5634 2.97009 14.3685 1.79161C13.1738 0.613407 11.591 -0.0229605 9.91195 0.000633288C8.28117 0.0232505 6.7457 0.67829 5.58832 1.84516C4.43105 3.01196 3.78839 4.5527 3.77871 6.18368C3.77277 7.18036 4.00828 8.17286 4.4596 9.05395C4.46445 9.06337 4.46957 9.07266 4.475 9.08181L6.74781 12.8911L5.42851 13.4782C5.32058 13.5262 5.23347 13.6113 5.183 13.7181L2.5464 19.2956C2.45816 19.4821 2.49539 19.7039 2.63968 19.8514C2.78394 19.999 3.00472 20.0412 3.19328 19.9573L6.49632 18.4868L9.79937 19.9573C9.92714 20.0141 10.073 20.0141 10.2008 19.9573L13.5039 18.4868L16.8069 19.9573C16.8714 19.986 16.9398 20 17.0075 20C17.1376 20 17.2656 19.9485 17.3605 19.8515C17.5047 19.7039 17.5419 19.4822 17.4536 19.2956ZM5.33101 8.59009C4.95093 7.84274 4.76074 7.0352 4.76578 6.18958C4.7825 3.36032 7.09726 1.02669 9.9257 0.987508C11.3384 0.968524 12.6703 1.50309 13.6754 2.49438C14.6808 3.48591 15.2344 4.8095 15.2344 6.22141C15.2344 7.05575 15.0443 7.85255 14.6691 8.59009L10.4239 15.7052C10.2943 15.9224 10.0843 15.9459 10.0001 15.9459C9.91578 15.9459 9.70585 15.9224 9.57628 15.7052L5.33101 8.59009ZM13.7045 17.4958C13.5767 17.4389 13.4308 17.4389 13.303 17.4958L9.99999 18.9663L6.69695 17.4958C6.56917 17.4389 6.42328 17.4389 6.2955 17.4958L4.0073 18.5145L5.99707 14.3056L7.25714 13.7448L8.72855 16.2109C8.99824 16.6629 9.47355 16.9328 9.99992 16.9328C10.5263 16.9328 11.0016 16.6629 11.2713 16.2109L12.7427 13.7448L14.0029 14.3058L15.9925 18.5145L13.7045 17.4958Z" fill="#999999"/>
<path d="M10.0001 3.96899C8.75815 3.96899 7.7478 4.97935 7.7478 6.22126C7.7478 7.46317 8.75815 8.47353 10.0001 8.47353C11.242 8.47356 12.2524 7.46317 12.2524 6.22126C12.2524 4.97935 11.242 3.96899 10.0001 3.96899ZM10.0001 7.48657C9.30241 7.48661 8.73476 6.91903 8.73476 6.22126C8.73476 5.52356 9.30237 4.95595 10.0001 4.95595C10.6978 4.95595 11.2654 5.52356 11.2654 6.22126C11.2654 6.91895 10.6978 7.48657 10.0001 7.48657Z" fill="#999999"/>
</g>
<defs>
<clipPath id="clip0_325_3447">
<rect width="20" height="20" fill="white"/>
</clipPath>
</defs>
</svg>