<svg width="17" height="17" viewBox="0 0 17 17" fill="none" xmlns="http://www.w3.org/2000/svg">
<path d="M7.46592 0.390015C3.36809 0.390015 0.0300293 3.72807 0.0300293 7.82591C0.0300293 11.9238 3.36809 15.2683 7.46592 15.2683C9.21623 15.2683 10.826 14.6549 12.0982 13.6364L15.1955 16.7322C15.3518 16.882 15.5607 16.9646 15.7771 16.9625C15.9937 16.9603 16.2007 16.8733 16.3539 16.7204C16.5071 16.5674 16.5944 16.3605 16.5968 16.144C16.5994 15.9274 16.517 15.7185 16.3674 15.562L13.27 12.4647C14.2893 11.1905 14.9034 9.57824 14.9034 7.82591C14.9034 3.72807 11.5638 0.390015 7.46592 0.390015ZM7.46592 2.04282C10.6705 2.04282 13.249 4.62132 13.249 7.82591C13.249 11.0305 10.6705 13.6154 7.46592 13.6154C4.26132 13.6154 1.68281 11.0305 1.68281 7.82591C1.68281 4.62132 4.26132 2.04282 7.46592 2.04282Z" fill="#888"/>
</svg>
