<svg xmlns="http://www.w3.org/2000/svg" width="20" height="20" viewBox="0 0 20 20" fill="none">
<path d="M18.75 3.125C18.75 2.62772 18.5525 2.15081 18.2009 1.79917C17.8492 1.44754 17.3723 1.25 16.875 1.25H11.1625C10.9089 1.25012 10.658 1.3017 10.4248 1.4016C10.1917 1.50151 9.98129 1.64767 9.80629 1.83125L2.16879 9.8375C1.82711 10.1877 1.63586 10.6576 1.63586 11.1469C1.63586 11.6361 1.82711 12.106 2.16879 12.4563L7.48129 17.7687C7.83259 18.1205 8.30918 18.3183 8.80629 18.3188C9.05437 18.3177 9.29977 18.2675 9.52829 18.1709C9.75681 18.0744 9.96389 17.9334 10.1375 17.7563L18.2125 9.55625C18.5582 9.20446 18.7513 8.73066 18.75 8.2375V3.125ZM17.3375 8.66875L9.28754 16.875C9.22966 16.9341 9.16063 16.981 9.08446 17.0132C9.00829 17.0454 8.92648 17.0622 8.84379 17.0625C8.67983 17.0618 8.5227 16.9967 8.40629 16.8813L3.08129 11.5688C2.96864 11.4522 2.90567 11.2965 2.90567 11.1344C2.90567 10.9723 2.96864 10.8165 3.08129 10.7L10.7063 2.69375C10.7644 2.63281 10.8342 2.58424 10.9115 2.55094C10.9888 2.51765 11.0721 2.50032 11.1563 2.5H16.875C17.0408 2.5 17.1998 2.56585 17.317 2.68306C17.4342 2.80027 17.5 2.95924 17.5 3.125V8.225C17.5022 8.30935 17.4872 8.39325 17.4561 8.47167C17.4249 8.55008 17.3782 8.62137 17.3188 8.68125L17.3375 8.66875ZM13.1563 4.19375C12.8188 4.54802 12.6331 5.0202 12.6389 5.50949C12.6448 5.99877 12.8417 6.46639 13.1875 6.8125C13.5332 7.16197 14.0023 7.36172 14.4938 7.36875C14.7341 7.3705 14.9724 7.32393 15.1944 7.23181C15.4163 7.13969 15.6175 7.00389 15.786 6.8325C15.9545 6.6611 16.0868 6.45759 16.1751 6.23405C16.2634 6.01052 16.3059 5.77152 16.3 5.53125C16.293 5.03975 16.0933 4.57067 15.7438 4.225C15.3991 3.88834 14.9381 3.69728 14.4563 3.69147C13.9745 3.68565 13.509 3.86551 13.1563 4.19375ZM14.925 5.9625C14.8702 6.0147 14.8054 6.05541 14.7346 6.08224C14.6637 6.10908 14.5882 6.12149 14.5125 6.11875C14.4298 6.11841 14.348 6.10166 14.2719 6.06947C14.1957 6.03729 14.1267 5.9903 14.0688 5.93125C13.9555 5.81937 13.8892 5.66845 13.8834 5.50932C13.8775 5.35019 13.9327 5.19485 14.0375 5.075C14.1451 4.97149 14.2883 4.9133 14.4375 4.9125C14.6088 4.91626 14.7721 4.98561 14.8938 5.10625C14.9528 5.16413 14.9998 5.23316 15.032 5.30933C15.0642 5.38551 15.0809 5.46731 15.0813 5.55C15.0851 5.62582 15.0732 5.70161 15.0463 5.7726C15.0194 5.84359 14.9781 5.90825 14.925 5.9625Z" fill="#999999"/>
</svg>