<svg width="15" height="15" viewBox="0 0 15 15" fill="none" xmlns="http://www.w3.org/2000/svg">
<path d="M7.68921 4.06641C9.65796 4.06641 11.283 5.69141 11.283 7.66016C11.283 9.66016 9.65796 11.2539 7.68921 11.2539C5.68921 11.2539 4.09546 9.66016 4.09546 7.66016C4.09546 5.69141 5.68921 4.06641 7.68921 4.06641ZM7.68921 10.0039C8.97046 10.0039 10.0017 8.97266 10.0017 7.66016C10.0017 6.37891 8.97046 5.34766 7.68921 5.34766C6.37671 5.34766 5.34546 6.37891 5.34546 7.66016C5.34546 8.97266 6.40796 10.0039 7.68921 10.0039ZM12.2517 3.94141C12.2517 4.41016 11.8767 4.78516 11.408 4.78516C10.9392 4.78516 10.5642 4.41016 10.5642 3.94141C10.5642 3.47266 10.9392 3.09766 11.408 3.09766C11.8767 3.09766 12.2517 3.47266 12.2517 3.94141ZM14.6267 4.78516C14.6892 5.94141 14.6892 9.41016 14.6267 10.5664C14.5642 11.6914 14.3142 12.6602 13.5017 13.5039C12.6892 14.3164 11.6892 14.5664 10.5642 14.6289C9.40796 14.6914 5.93921 14.6914 4.78296 14.6289C3.65796 14.5664 2.68921 14.3164 1.84546 13.5039C1.03296 12.6602 0.782959 11.6914 0.720459 10.5664C0.657959 9.41016 0.657959 5.94141 0.720459 4.78516C0.782959 3.66016 1.03296 2.66016 1.84546 1.84766C2.68921 1.03516 3.65796 0.785156 4.78296 0.722656C5.93921 0.660156 9.40796 0.660156 10.5642 0.722656C11.6892 0.785156 12.6892 1.03516 13.5017 1.84766C14.3142 2.66016 14.5642 3.66016 14.6267 4.78516ZM13.1267 11.7852C13.5017 10.8789 13.408 8.69141 13.408 7.66016C13.408 6.66016 13.5017 4.47266 13.1267 3.53516C12.8767 2.94141 12.408 2.44141 11.8142 2.22266C10.8767 1.84766 8.68921 1.94141 7.68921 1.94141C6.65796 1.94141 4.47046 1.84766 3.56421 2.22266C2.93921 2.47266 2.47046 2.94141 2.22046 3.53516C1.84546 4.47266 1.93921 6.66016 1.93921 7.66016C1.93921 8.69141 1.84546 10.8789 2.22046 11.7852C2.47046 12.4102 2.93921 12.8789 3.56421 13.1289C4.47046 13.5039 6.65796 13.4102 7.68921 13.4102C8.68921 13.4102 10.8767 13.5039 11.8142 13.1289C12.408 12.8789 12.908 12.4102 13.1267 11.7852Z" fill="#575F69"/>
</svg>
