<svg width="18" height="13" viewBox="0 0 18 13" fill="none" xmlns="http://www.w3.org/2000/svg">
<path d="M16.8455 2.56641C17.2205 3.87891 17.2205 6.69141 17.2205 6.69141C17.2205 6.69141 17.2205 9.47266 16.8455 10.8164C16.658 11.5664 16.0642 12.1289 15.3455 12.3164C14.0017 12.6602 8.68921 12.6602 8.68921 12.6602C8.68921 12.6602 3.34546 12.6602 2.00171 12.3164C1.28296 12.1289 0.689209 11.5664 0.501709 10.8164C0.126709 9.47266 0.126709 6.69141 0.126709 6.69141C0.126709 6.69141 0.126709 3.87891 0.501709 2.56641C0.689209 1.81641 1.28296 1.22266 2.00171 1.03516C3.34546 0.660156 8.68921 0.660156 8.68921 0.660156C8.68921 0.660156 14.0017 0.660156 15.3455 1.03516C16.0642 1.22266 16.658 1.81641 16.8455 2.56641ZM6.93921 9.22266L11.3767 6.69141L6.93921 4.16016V9.22266Z" fill="#575F69"/>
</svg>
