<svg width="22" height="18" viewBox="0 0 22 18" fill="none" xmlns="http://www.w3.org/2000/svg">
<path d="M21.6867 2.07031C20.9167 2.42031 20.0867 2.65031 19.2267 2.76031C20.1067 2.23031 20.7867 1.39031 21.1067 0.380312C20.2767 0.880312 19.3567 1.23031 18.3867 1.43031C17.5967 0.570313 16.4867 0.0703125 15.2267 0.0703125C12.8767 0.0703125 10.9567 1.99031 10.9567 4.36031C10.9567 4.70031 10.9967 5.03031 11.0667 5.34031C7.50672 5.16031 4.33672 3.45031 2.22672 0.860312C1.85672 1.49031 1.64672 2.23031 1.64672 3.01031C1.64672 4.50031 2.39672 5.82031 3.55672 6.57031C2.84672 6.57031 2.18672 6.37031 1.60672 6.07031V6.10031C1.60672 8.18031 3.08672 9.92031 5.04672 10.3103C4.41745 10.4825 3.75682 10.5065 3.11672 10.3803C3.38833 11.2328 3.92026 11.9787 4.63774 12.5132C5.35522 13.0478 6.22217 13.344 7.11672 13.3603C5.60035 14.5608 3.72072 15.2096 1.78672 15.2003C1.44672 15.2003 1.10672 15.1803 0.766724 15.1403C2.66672 16.3603 4.92672 17.0703 7.34672 17.0703C15.2267 17.0703 19.5567 10.5303 19.5567 4.86031C19.5567 4.67031 19.5567 4.49031 19.5467 4.30031C20.3867 3.70031 21.1067 2.94031 21.6867 2.07031Z" fill="#999"/>
</svg>
