<svg xmlns="http://www.w3.org/2000/svg" width="20" height="20" viewBox="0 0 20 20" fill="none">
<path d="M14.5444 0H10.0391C7.88513 0 6.13281 1.75232 6.13281 3.90625V6.2027C3.52936 6.58234 1.52344 8.82935 1.52344 11.5366C1.52344 11.9679 1.87317 12.3178 2.30469 12.3178H11.5234C11.955 12.3178 12.3047 11.9679 12.3047 11.5366C12.3047 8.82935 10.2988 6.58234 7.69531 6.2027V3.90625C7.69531 2.61383 8.74664 1.5625 10.0391 1.5625H14.5442C15.8366 1.5625 16.888 2.61383 16.888 3.90625V19.2188C16.888 19.6503 17.2377 20 17.6692 20C18.1007 20 18.4505 19.6503 18.4505 19.2188V3.90625C18.4506 1.75232 16.6982 0 14.5444 0ZM10.6621 10.7552H3.16605C3.52768 9.01764 5.0708 7.70828 6.91406 7.70828C8.75732 7.70828 10.3004 9.01764 10.6621 10.7552ZM7.69531 14.2253V15.3972C7.69531 15.8287 7.34558 16.1784 6.91406 16.1784C6.48254 16.1784 6.13281 15.8287 6.13281 15.3972V14.2253C6.13281 13.7938 6.48254 13.4441 6.91406 13.4441C7.34558 13.4441 7.69531 13.7938 7.69531 14.2253ZM7.686 18.0469V19.2188C7.686 19.6503 7.33627 20 6.90475 20C6.47339 20 6.1235 19.6503 6.1235 19.2188V18.0469C6.1235 17.6154 6.47339 17.2656 6.90475 17.2656C7.33627 17.2656 7.686 17.6154 7.686 18.0469ZM4.62708 14.2253V15.3972C4.62708 15.8287 4.27719 16.1784 3.84583 16.1784C3.41431 16.1784 3.06458 15.8287 3.06458 15.3972V14.2253C3.06458 13.7938 3.41431 13.4441 3.84583 13.4441C4.27719 13.4441 4.62708 13.7938 4.62708 14.2253ZM4.61777 18.0469V19.2188C4.61777 19.6503 4.26804 20 3.83652 20C3.405 20 3.05527 19.6503 3.05527 19.2188V18.0469C3.05527 17.6154 3.405 17.2656 3.83652 17.2656C4.26804 17.2656 4.61777 17.6154 4.61777 18.0469ZM10.7544 14.2253V15.3972C10.7544 15.8287 10.4045 16.1784 9.97314 16.1784C9.54163 16.1784 9.19189 15.8287 9.19189 15.3972V14.2253C9.19189 13.7938 9.54163 13.4441 9.97314 13.4441C10.4045 13.4441 10.7544 13.7938 10.7544 14.2253ZM10.7451 18.0469V19.2188C10.7451 19.6503 10.3952 20 9.96384 20C9.53232 20 9.18259 19.6503 9.18259 19.2188V18.0469C9.18259 17.6154 9.53232 17.2656 9.96384 17.2656C10.3952 17.2656 10.7451 17.6154 10.7451 18.0469Z" fill="#999999"/>
</svg>