<svg xmlns="http://www.w3.org/2000/svg" width="20" height="20" viewBox="0 0 20 20" fill="none">
<path d="M18.125 2.5V6.25C18.125 6.59516 17.8452 6.875 17.5 6.875C17.1548 6.875 16.875 6.59516 16.875 6.25V4.00875L12.9419 7.94187C12.8198 8.06391 12.6598 8.125 12.5 8.125C12.3402 8.125 12.1802 8.06391 12.0581 7.94187C11.8139 7.69766 11.8139 7.30219 12.0581 7.05813L15.9913 3.125H13.75C13.4048 3.125 13.125 2.84516 13.125 2.5C13.125 2.15484 13.4048 1.875 13.75 1.875H17.5C17.8452 1.875 18.125 2.15484 18.125 2.5ZM7.94187 7.05813L4.00875 3.125H6.25C6.59516 3.125 6.875 2.84516 6.875 2.5C6.875 2.15484 6.59516 1.875 6.25 1.875H2.5C2.15484 1.875 1.875 2.15484 1.875 2.5V6.25C1.875 6.59516 2.15484 6.875 2.5 6.875C2.84516 6.875 3.125 6.59516 3.125 6.25V4.00875L7.05813 7.94187C7.18016 8.06391 7.34016 8.125 7.5 8.125C7.65984 8.125 7.81984 8.06391 7.94187 7.94187C8.18609 7.69781 8.18609 7.30219 7.94187 7.05813ZM17.5 13.125C17.1548 13.125 16.875 13.4048 16.875 13.75V15.9913L12.9419 12.0581C12.6977 11.8139 12.3022 11.8139 12.0581 12.0581C11.8141 12.3023 11.8139 12.6978 12.0581 12.9419L15.9913 16.875H13.75C13.4048 16.875 13.125 17.1548 13.125 17.5C13.125 17.8452 13.4048 18.125 13.75 18.125H17.5C17.8452 18.125 18.125 17.8452 18.125 17.5V13.75C18.125 13.4048 17.8452 13.125 17.5 13.125ZM7.94187 12.0581C7.69766 11.8139 7.30219 11.8139 7.05813 12.0581L3.125 15.9913V13.75C3.125 13.4048 2.84516 13.125 2.5 13.125C2.15484 13.125 1.875 13.4048 1.875 13.75V17.5C1.875 17.8452 2.15484 18.125 2.5 18.125H6.25C6.59516 18.125 6.875 17.8452 6.875 17.5C6.875 17.1548 6.59516 16.875 6.25 16.875H4.00875L7.94187 12.9419C8.18609 12.6978 8.18609 12.3022 7.94187 12.0581Z" fill="#999999"/>
</svg>