<svg width="15" height="15" viewBox="0 0 15 15" fill="none" xmlns="http://www.w3.org/2000/svg">
<path d="M13.6892 0.660156C14.2205 0.660156 14.6892 1.12891 14.6892 1.69141V13.6602C14.6892 14.2227 14.2205 14.6602 13.6892 14.6602H1.65796C1.12671 14.6602 0.689209 14.2227 0.689209 13.6602V1.69141C0.689209 1.12891 1.12671 0.660156 1.65796 0.660156H13.6892ZM4.90796 12.6602V6.00391H2.84546V12.6602H4.90796ZM3.87671 5.06641C4.53296 5.06641 5.06421 4.53516 5.06421 3.87891C5.06421 3.22266 4.53296 2.66016 3.87671 2.66016C3.18921 2.66016 2.65796 3.22266 2.65796 3.87891C2.65796 4.53516 3.18921 5.06641 3.87671 5.06641ZM12.6892 12.6602V9.00391C12.6892 7.22266 12.283 5.81641 10.1892 5.81641C9.18921 5.81641 8.50171 6.37891 8.22046 6.91016H8.18921V6.00391H6.22046V12.6602H8.28296V9.37891C8.28296 8.50391 8.43921 7.66016 9.53296 7.66016C10.5955 7.66016 10.5955 8.66016 10.5955 9.41016V12.6602H12.6892Z" fill="#575F69"/>
</svg>
