<svg width="17" height="18" viewBox="0 0 17 18" fill="none" xmlns="http://www.w3.org/2000/svg">
<g clip-path="url(#clip0_1_309)">
<g clip-path="url(#clip1_1_309)">
<path fill-rule="evenodd" clip-rule="evenodd" d="M7.48768 1.54591C7.60108 1.19599 7.92725 0.959473 8.29445 0.959473C8.66165 0.959473 8.98673 1.19599 9.10013 1.54591L10.5225 5.92853C10.5646 6.05705 10.6467 6.16937 10.7558 6.24929C10.8659 6.32921 10.9988 6.37242 11.1338 6.37242L15.7421 6.37025C16.1093 6.37025 16.4344 6.60677 16.5478 6.95669C16.6612 7.30553 16.537 7.68786 16.24 7.90386L12.5118 10.6114C12.4017 10.6913 12.3196 10.8036 12.2775 10.9322C12.2354 11.0618 12.2364 11.2011 12.2775 11.3296L13.7031 15.7112C13.8165 16.0611 13.6923 16.4434 13.3953 16.6594C13.0983 16.8754 12.6954 16.8754 12.3984 16.6594L8.67246 13.9497C8.5623 13.8698 8.43053 13.8266 8.29445 13.8266C8.15837 13.8266 8.0266 13.8698 7.91644 13.9497L4.18938 16.6594C3.89238 16.8754 3.49059 16.8754 3.19359 16.6594C2.89551 16.4434 2.77134 16.0611 2.88582 15.7112L4.31034 11.3296C4.35246 11.2011 4.35246 11.0618 4.31034 10.9322C4.2693 10.8036 4.18721 10.6913 4.07705 10.6114L0.348901 7.90386C0.0519012 7.68786 -0.0733903 7.30553 0.0400096 6.95669C0.15449 6.60677 0.479579 6.37025 0.846779 6.37025L5.45405 6.37242C5.59013 6.37242 5.72297 6.32921 5.83205 6.24929C5.94221 6.16937 6.0243 6.05705 6.06534 5.92853L7.48768 1.54591Z" fill="#F6BB06"/>
</g>
</g>
<defs>
<clipPath id="clip0_1_309">
<rect width="17" height="17" fill="white" transform="translate(0 0.960205)"/>
</clipPath>
<clipPath id="clip1_1_309">
<rect width="17" height="15.9375" fill="white" transform="translate(0 0.960205)"/>
</clipPath>
</defs>
</svg>
